<svg width="22" height="14" viewBox="0 0 22 14" fill="none" xmlns="http://www.w3.org/2000/svg">
<path d="M21.2891 1.40771C21.4336 0.919433 21.2891 0.560059 20.5938 0.560059H18.293C17.707 0.560059 17.4375 0.868652 17.293 1.2124C17.293 1.2124 16.1211 4.06787 14.4648 5.91943C13.9297 6.45459 13.6836 6.62646 13.3906 6.62646C13.2461 6.62646 13.0234 6.45459 13.0234 5.96631V1.40771C13.0234 0.821777 12.8594 0.560059 12.375 0.560059H8.75781C8.39062 0.560059 8.17187 0.833496 8.17187 1.0874C8.17187 1.64209 9 1.771 9.08594 3.3335V6.72412C9.08594 7.46631 8.95312 7.60303 8.66016 7.60303C7.87891 7.60303 5.98047 4.73584 4.85547 1.45459C4.62891 0.817871 4.40625 0.560059 3.81641 0.560059H1.51562C0.859375 0.560059 0.726562 0.868652 0.726562 1.2124C0.726562 1.82178 1.50781 4.84912 4.36328 8.84912C6.26562 11.5796 8.94531 13.0601 11.3828 13.0601C12.8477 13.0601 13.0273 12.7319 13.0273 12.1655C13.0273 9.55615 12.8945 9.31006 13.6289 9.31006C13.9687 9.31006 14.5547 9.48193 15.9219 10.7983C17.4844 12.3608 17.7422 13.0601 18.6172 13.0601H20.918C21.5742 13.0601 21.9063 12.7319 21.7148 12.0835C21.2773 10.7202 18.3203 7.91553 18.1875 7.72803C17.8477 7.29053 17.9453 7.09521 18.1875 6.70459C18.1914 6.70068 21 2.74756 21.2891 1.40771Z" fill="#3F3F3F"/>
</svg>
