<svg width="22" height="16" viewBox="0 0 22 16" fill="none" xmlns="http://www.w3.org/2000/svg">
<path d="M20.9709 2.65705C20.7255 1.73322 20.0026 1.00564 19.0848 0.75873C17.4211 0.310059 10.75 0.310059 10.75 0.310059C10.75 0.310059 4.0789 0.310059 2.41519 0.75873C1.49734 1.00568 0.774446 1.73322 0.529094 2.65705C0.083313 4.33154 0.083313 7.82521 0.083313 7.82521C0.083313 7.82521 0.083313 11.3189 0.529094 12.9934C0.774446 13.9172 1.49734 14.6145 2.41519 14.8614C4.0789 15.3101 10.75 15.3101 10.75 15.3101C10.75 15.3101 17.4211 15.3101 19.0848 14.8614C20.0026 14.6145 20.7255 13.9172 20.9709 12.9934C21.4167 11.3189 21.4167 7.82521 21.4167 7.82521C21.4167 7.82521 21.4167 4.33154 20.9709 2.65705ZM8.56816 10.9972V4.65322L14.1439 7.82529L8.56816 10.9972Z" fill="#3F3F3F"/>
</svg>
